<?xml version="1.0" encoding="UTF-8"?>
<svg id="Layer_3" data-name="Layer 3" xmlns="http://www.w3.org/2000/svg" viewBox="0 0 240 110.37">
  <defs>
    <style>
      .cls-1 {
        fill: #0d1b2a;
      }
    </style>
  </defs>
  <g id="Layer_1" data-name="Layer 1">
    <g>
      <path class="cls-1" d="M.66,55.12C3.78,32.9,15.86,17.75,30.47,9.04l.56,1.14c-5.59,4.36-8.33,12.06-9.58,20.99-5.47,38.89,18.54,71.05,45.13,72.45,3.5.18,6.54-.4,9.18-1.57l.53,1.13c-9.49,4.89-19.85,7.19-29.5,7.19-25.72,0-51.23-18.93-46.13-55.25ZM62.67,0c25.84,0,51.63,17.84,46.36,55.37-3.11,22.16-14.69,37.02-28.88,45.65l-.59-1.25c5.99-4.67,9.13-12.89,10.26-20.97C94.47,45.63,72,6.35,43.24,6.35c-3.28,0-6.1.58-8.53,1.63l-.45-1.04C43.48,2.27,53.44,0,62.67,0Z"/>
      <path class="cls-1" d="M61.29,27.76c0,7.24-.15,15.73-.15,27.43s.15,19.53.15,27.43c-2.78-.07-4.61-.07-6.44-.07-1.68,0-3.44,0-6,.07.07-7.9,0-15.73,0-27.43,0-14.41-.22-19.09-.44-22.02,2.71-1.68,4.83-3.22,6.88-5.41h6Z"/>
      <path class="cls-1" d="M130.94,55.12c3.12-22.22,15.2-37.38,29.81-46.09l.56,1.14c-5.59,4.36-8.33,12.06-9.58,20.99-5.47,38.89,18.54,71.05,45.13,72.45,3.5.18,6.54-.4,9.18-1.57l.53,1.13c-9.49,4.89-19.85,7.19-29.5,7.19-25.72,0-51.23-18.93-46.13-55.25ZM192.95,0c25.84,0,51.63,17.84,46.36,55.37-3.11,22.16-14.69,37.02-28.88,45.65l-.59-1.25c5.99-4.67,9.13-12.89,10.26-20.97,4.66-33.17-17.81-72.46-46.57-72.46-3.28,0-6.1.58-8.53,1.63l-.45-1.04c9.21-4.68,19.17-6.94,28.4-6.94Z"/>
      <path class="cls-1" d="M191.58,27.76c0,7.24-.15,15.73-.15,27.43s.15,19.53.15,27.43c-2.78-.07-4.61-.07-6.44-.07-1.68,0-3.44,0-6,.07.07-7.9,0-15.73,0-27.43,0-14.41-.22-19.09-.44-22.02,2.71-1.68,4.83-3.22,6.88-5.41h6Z"/>
      <path class="cls-1" d="M114.14,55.51c1.81.06,3.55.06,4.68.06.87,0,2.62,0,4.61-.06-2.31,6.42-14.9,44.07-18.26,54.86-1.75-.06-3.43-.06-4.68-.06-1.93,0-3.55.06-4.61.06,3.93-10.97,16.02-47.25,18.27-54.86Z"/>
    </g>
  </g>
</svg>